<svg xmlns="http://www.w3.org/2000/svg" width="512" height="512"><path d="M0 255.999v255.999l256.25-.249 256.25-.249.252-255.75L513.004 0H0v255.999m.492.501c0 140.8.116 198.251.258 127.67.142-70.582.142-185.782 0-256C.608 57.951.492 115.7.492 256.5M164.994 64.874c-5.709 1.874-9.936 4.814-17.994 12.518-7.532 7.201-39.167 35.075-77.616 68.388-14.225 12.325-19.032 17.913-22.867 26.585-8.36 18.903 4.63 38.345 24.266 36.318 7.545-.779 13.748-4.785 18.562-11.989 2.749-4.115 8.248-9.336 19.307-18.333 8.504-6.919 15.628-12.415 15.83-12.212.203.202-2.072 9.814-5.055 21.36C111.768 217.155 106.136 242.502 95.1 297l-9.62 47.5-8.49.651c-4.669.358-15.721.695-24.558.75-10.982.068-17.63.565-21 1.57-21.2 6.325-23.579 35.784-3.688 45.666 4.742 2.356 4.858 2.362 38.756 2.191 35.336-.18 62.925-1.838 89.5-5.381 9.017-1.202 20.389-1.935 30.072-1.94 18.931-.009 23.156-1.14 30.068-8.051 7.583-7.584 9.727-17.891 5.866-28.209-2.388-6.383-7.7-11.851-14.373-14.796-4.477-1.976-6.436-2.138-24.5-2.022-12.009.078-22.351.658-26.633 1.495-3.85.753-7.272 1.205-7.604 1.004-.629-.381 8.47-55.045 14.636-87.928 3.389-18.075 10.315-50.116 15.996-74 1.439-6.05 5.729-24.275 9.535-40.5 3.805-16.225 7.624-31.975 8.487-35 1.733-6.073 1.341-13.932-.97-19.463-1.955-4.679-8.223-11.314-12.982-13.742-4.379-2.234-14.473-3.276-18.604-1.921M389 75.381c-8.681 1.951-14.931 5.789-26.621 16.348-5.984 5.405-18.529 16.551-27.879 24.77-23.578 20.727-37.595 34.894-40.567 41.001-1.927 3.96-2.428 6.56-2.41 12.5.027 8.765 2.157 13.756 8.095 18.97 5.099 4.476 9.273 6.034 16.1 6.008 9.403-.036 17.45-4.563 21.289-11.978 1.967-3.799 8.88-9.998 39.403-35.333l19.909-16.525 3.444 2.626c1.894 1.445 6.349 5.958 9.9 10.03l6.456 7.402-.65 5.65c-2.727 23.73-8.932 42.198-25.373 75.519-14.946 30.288-26.426 50.306-32.393 56.481-10.278 10.639-33.12 25.554-44.43 29.012-12.569 3.844-29.988 17.877-35.243 28.393-8.007 16.024-.265 35.398 16.678 41.737 6.383 2.388 12.304 2.526 22.932.535 37.868-7.094 46.349-7.582 95.86-5.512 29.466 1.232 41.194 2.37 52.369 5.083 10.877 2.64 26.585 2.376 32.131-.54 5.068-2.664 9.184-6.335 11.719-10.453 2.015-3.273 2.218-4.893 2.217-17.605-.002-13.634-.074-14.105-2.752-18-3.665-5.332-11.008-10.126-17.442-11.388-24.731-4.847-34.21-5.871-62.357-6.736l-22.384-.688 2.31-3.094c11.434-15.316 43.549-83.652 51.033-108.594 6.789-22.628 10.223-45.681 9.497-63.762-.39-9.704-.455-9.922-5.772-19.519-3.56-6.428-8.28-12.883-13.973-19.111-9.972-10.911-10.995-11.798-25.844-22.427-14.843-10.626-23.806-13.372-35.252-10.8" fill="undefined" fill-rule="evenodd"/></svg>